<svg width="26" height="20" viewBox="0 0 26 20" fill="none" xmlns="http://www.w3.org/2000/svg">
<path d="M25.1282 2.43589C24.2307 2.8205 23.2051 3.07692 22.1795 3.20513C23.2051 2.5641 24.1025 1.53846 24.4872 0.384619C23.4615 1.02564 22.4359 1.41026 21.1538 1.66667C20.2564 0.641029 18.8461 0 17.4359 0C14.6154 0 12.3077 2.30769 12.3077 5.1282C12.3077 5.51282 12.3077 5.89743 12.4359 6.28204C8.20512 6.02563 4.35896 3.97435 1.79486 0.897432C1.41025 1.66666 1.15384 2.5641 1.15384 3.46153C1.15384 5.2564 2.05128 6.79487 3.46153 7.6923C2.5641 7.6923 1.79486 7.43589 1.15384 7.05128C1.15384 9.48718 2.9487 11.6667 5.2564 12.0513C4.87178 12.1795 4.35897 12.1795 3.84615 12.1795C3.46154 12.1795 3.20512 12.1795 2.82051 12.0513C3.46153 14.1026 5.38461 15.641 7.6923 15.641C5.89743 17.0513 3.71795 17.8205 1.28205 17.8205C0.897435 17.8205 0.51282 17.8205 0 17.6923C2.30769 19.1026 4.99999 20 7.94871 20C17.4359 20 22.5641 12.1795 22.5641 5.38461V4.74358C23.5897 4.35897 24.4872 3.46153 25.1282 2.43589Z" fill="#2A5A49"/>
</svg>
