<svg width="29" height="63" viewBox="0 0 29 63" fill="none" xmlns="http://www.w3.org/2000/svg">
<path d="M24.021 61.5276C24.8647 62.6206 26.4347 62.8227 27.5276 61.979C28.6206 61.1353 28.8227 59.5653 27.979 58.4724L24.021 61.5276ZM4 31.5L2.02102 29.9724L0.841801 31.5L2.02102 33.0276L4 31.5ZM27.979 4.52763C28.8227 3.43467 28.6206 1.86471 27.5276 1.02102C26.4347 0.177334 24.8647 0.379409 24.021 1.47237L27.979 4.52763ZM27.979 58.4724L5.97898 29.9724L2.02102 33.0276L24.021 61.5276L27.979 58.4724ZM5.97898 33.0276L27.979 4.52763L24.021 1.47237L2.02102 29.9724L5.97898 33.0276Z" fill="#F5FFFD"/>
</svg>
