<svg width="29" height="63" viewBox="0 0 29 63" fill="none" xmlns="http://www.w3.org/2000/svg">
<path d="M4.97898 1.47237C4.13529 0.379411 2.56533 0.177337 1.47237 1.02102C0.379411 1.86471 0.177337 3.43467 1.02102 4.52763L4.97898 1.47237ZM25 31.5L26.979 33.0276L28.1582 31.5L26.979 29.9724L25 31.5ZM1.02102 58.4724C0.177337 59.5653 0.379411 61.1353 1.47237 61.979C2.56533 62.8227 4.13529 62.6206 4.97898 61.5276L1.02102 58.4724ZM1.02102 4.52763L23.021 33.0276L26.979 29.9724L4.97898 1.47237L1.02102 4.52763ZM23.021 29.9724L1.02102 58.4724L4.97898 61.5276L26.979 33.0276L23.021 29.9724Z" fill="#F5FFFD"/>
</svg>
