<svg width="30" height="20" viewBox="0 0 30 20" fill="none" xmlns="http://www.w3.org/2000/svg">
<path fill-rule="evenodd" clip-rule="evenodd" d="M3.01665 19.4091C2.49363 19.2543 2.01642 18.9791 1.62528 18.6065C1.23413 18.2339 0.940537 17.7749 0.769263 17.2683C-0.209439 14.6498 -0.499425 3.71591 1.38548 1.55743C2.01281 0.855265 2.89852 0.422958 3.85036 0.354346C8.90699 -0.176427 24.53 -0.105657 26.3243 0.531271C26.8289 0.691097 27.29 0.960341 27.6729 1.31883C28.0559 1.67732 28.3507 2.11575 28.5354 2.60128C29.6047 5.30823 29.641 15.1452 28.3904 17.746C28.0587 18.423 27.5033 18.9714 26.8136 19.3029C24.9287 20.2229 5.51778 20.2052 3.01665 19.4091V19.4091ZM11.0456 14.2783L20.1077 9.67825L11.0456 5.04284V14.2783Z" fill="#2A5A49"/>
</svg>
